<svg xmlns="http://www.w3.org/2000/svg" width="780" height="530" viewBox="0 0 780 530" role="img" aria-label="JingleAI Web 数据接入">
<title>JingleAI Web 数据接入</title>
<defs><marker id="arrow" viewBox="0 0 10 10" refX="9" refY="5" markerWidth="7" markerHeight="7" orient="auto-start-reverse"><path d="M 0 0 L 10 5 L 0 10 z" fill="#64748b"/></marker></defs>
<rect width="780" height="530" rx="14" fill="#f8fafc"/>
<path d="M 390 80 L 390 125" fill="none" stroke="#64748b" stroke-width="2" stroke-linejoin="round" marker-end="url(#arrow)"/>
<path d="M 330 185 L 330 208 L 190 208 L 190 230" fill="none" stroke="#64748b" stroke-width="2" stroke-linejoin="round" marker-end="url(#arrow)"/>
<path d="M 450 185 L 450 208 L 590 208 L 590 230" fill="none" stroke="#64748b" stroke-width="2" stroke-linejoin="round" marker-end="url(#arrow)"/>
<path d="M 190 290 L 190 316 L 390 316 L 390 340" fill="none" stroke="#64748b" stroke-width="2" stroke-linejoin="round" marker-end="url(#arrow)"/>
<path d="M 390 400 L 390 450" fill="none" stroke="#64748b" stroke-width="2" stroke-linejoin="round" marker-end="url(#arrow)"/>
<rect x="260" y="20" width="260" height="60" rx="9" fill="#e8f0ff" stroke="#648ad1" stroke-width="1.5"/>
<text x="390.0" y="50.0" text-anchor="middle" dominant-baseline="middle" font-family="PingFang SC, Noto Sans CJK SC, sans-serif" font-size="15" fill="#0f172a">React UI 与会话 store</text>
<rect x="260" y="125" width="260" height="60" rx="9" fill="#ffffff" stroke="#94a3b8" stroke-width="1.5"/>
<text x="390.0" y="155.0" text-anchor="middle" dominant-baseline="middle" font-family="PingFang SC, Noto Sans CJK SC, sans-serif" font-size="15" fill="#0f172a">Cloud Web SDK</text>
<rect x="60" y="230" width="260" height="60" rx="9" fill="#ffffff" stroke="#94a3b8" stroke-width="1.5"/>
<text x="190.0" y="250.0" text-anchor="middle" dominant-baseline="middle" font-family="PingFang SC, Noto Sans CJK SC, sans-serif" font-size="15" fill="#0f172a">Cloud REST</text>
<text x="190.0" y="270.0" text-anchor="middle" dominant-baseline="middle" font-family="PingFang SC, Noto Sans CJK SC, sans-serif" font-size="15" fill="#0f172a">/api/client</text>
<rect x="460" y="230" width="260" height="60" rx="9" fill="#ffffff" stroke="#94a3b8" stroke-width="1.5"/>
<text x="590.0" y="260.0" text-anchor="middle" dominant-baseline="middle" font-family="PingFang SC, Noto Sans CJK SC, sans-serif" font-size="15" fill="#0f172a">Run SSE 与恢复</text>
<rect x="260" y="340" width="260" height="60" rx="9" fill="#ffffff" stroke="#94a3b8" stroke-width="1.5"/>
<text x="390.0" y="370.0" text-anchor="middle" dominant-baseline="middle" font-family="PingFang SC, Noto Sans CJK SC, sans-serif" font-size="15" fill="#0f172a">Cloud 业务控制面</text>
<rect x="260" y="450" width="260" height="60" rx="9" fill="#ffffff" stroke="#94a3b8" stroke-width="1.5"/>
<text x="390.0" y="480.0" text-anchor="middle" dominant-baseline="middle" font-family="PingFang SC, Noto Sans CJK SC, sans-serif" font-size="15" fill="#0f172a">Kernel Runner</text>
</svg>
